<?xml version="1.0" encoding="UTF-8"?>
<!DOCTYPE svg PUBLIC "-//W3C//DTD SVG 1.1//EN" "http://www.w3.org/Graphics/SVG/1.1/DTD/svg11.dtd">
<svg version="1.1" xmlns="http://www.w3.org/2000/svg" xmlns:xlink="http://www.w3.org/1999/xlink" x="0" y="0" width="960" height="300" viewBox="0, 0, 960, 300">
  <g id="Layer_1">
    <path d="M247.152,99.057 L248.418,128.462 L248.418,129.674 Q248.418,130.995 248.088,131.326 Q247.207,132.096 246.161,132.096 Q245.114,132.096 244.454,131.546 Q243.793,130.995 243.793,130.169 Q244.123,129.508 244.123,128.848 L243.793,126.59 L243.793,115.411 Q243.793,113.925 237.846,112.851 Q231.898,111.777 229.035,111.777 Q227.934,111.777 227.053,115.879 Q226.172,119.982 225.346,124.883 Q224.52,129.784 223.694,130.995 Q221.05,130.995 220.224,129.618 Q221.986,127.085 223.611,117.284 Q225.235,107.482 226.227,103.049 Q227.218,98.616 229.778,83.803 Q232.339,68.99 233.248,64.833 Q234.156,60.675 234.652,58.693 Q235.147,56.711 235.918,54.012 Q237.735,47.515 239.167,47.515 Q240.929,47.515 241.508,48.313 Q242.086,49.111 242.499,52.058 Q242.912,55.004 243.325,59.547 Q243.738,64.09 244.068,67.889 Q245.114,79.783 245.362,83.528 Q245.61,87.272 246.381,88.924 Q246.161,92.339 246.161,94.789 Q246.161,97.239 247.152,99.057 z M228.65,108.638 Q233.385,110.235 240.048,110.235 Q241.425,110.235 242.086,110.015 L242.636,110.235 Q243.683,110.235 243.683,109.189 Q243.683,85.62 239.277,58.363 Q239.222,58.032 239.03,57.151 Q238.837,56.27 238.837,55.774 Q237.46,59.684 237.35,60.73 L237.68,61.391 Q237.295,61.777 236.414,65.273 Q235.533,68.77 233.963,79.701 Q232.394,90.632 231.706,93.743 Q231.017,96.854 230.246,99.387 Q228.65,105.004 228.65,107.977 z" fill="#1EB4EC"/>
    <path d="M285.698,50.543 L282.945,50.433 Q278.815,50.433 278.815,53.021 Q278.815,58.528 279.641,69.321 Q280.467,80.114 280.467,85.62 Q281.789,85.62 284.267,84.96 Q286.745,84.299 287.763,84.299 Q288.782,84.299 289.305,85.07 Q289.828,85.841 289.828,86.557 Q289.828,87.933 287.488,88.264 Q285.148,88.594 282.807,88.814 Q280.467,89.035 280.467,90.136 Q280.467,96.524 281.541,109.161 Q282.615,121.799 282.615,128.132 L282.284,128.737 Q282.615,129.563 282.615,130.389 Q282.615,132.317 280.137,132.317 Q278.209,132.317 278.209,124.663 L278.319,121.028 Q278.319,115.301 277.604,103.985 Q276.888,92.669 276.888,86.997 Q276.888,54.288 274.74,51.589 L274.74,50.874 Q274.74,46.854 285.919,46.854 Q287.791,46.854 287.791,49.442 Q287.791,50.543 285.698,50.543 z" fill="#1EB4EC"/>
    <path d="M325.126,88.539 L325.346,101.975 Q325.346,127.361 317.196,132.867 Q315.214,134.244 312.736,134.244 Q299.52,134.244 299.52,92.724 Q299.52,76.7 301.723,64.916 Q303.375,56.325 306.734,56.325 Q307.505,56.325 308.193,56.931 Q308.881,57.537 310.065,57.95 Q311.249,58.363 313.314,58.748 Q315.379,59.134 316.26,59.299 Q318.518,59.684 320.61,63.649 Q325.346,71.689 325.346,87.988 z M303.044,92.614 L303.264,101.535 Q303.264,112.273 305.687,121.964 Q306.568,125.599 308.303,128.297 Q310.038,130.995 312.268,130.995 Q314.498,130.995 316.178,129.343 Q317.857,127.691 318.848,124.745 Q319.839,121.799 320.5,118.743 Q321.161,115.687 321.436,111.887 Q321.877,105.83 321.877,101.094 L320.61,74.442 L320.17,73.561 L320.39,73.01 Q320.39,68.109 317.637,64.475 Q314.883,60.841 310.919,60.841 L306.183,60.841 Q305.247,60.841 304.531,70.89 Q303.815,80.94 303.595,82.041 z" fill="#1EB4EC"/>
    <path d="M360.038,81.435 L360.148,83.693 Q359.928,86.557 359.845,91.402 Q359.763,96.248 359.68,100.599 Q359.597,104.949 359.377,110.015 Q359.157,115.081 358.496,119.101 Q356.954,128.682 353.485,131.876 Q349.74,135.4 344.729,132.592 Q342.582,131.381 341.123,129.563 Q339.663,127.746 338.782,117.862 Q337.901,107.977 337.736,97.019 Q337.24,64.09 336.69,59.464 L337.406,57.867 Q339.994,58.197 339.994,64.09 L340.324,93.991 L341.536,117.889 Q341.536,130.72 350.016,130.72 Q355.247,130.72 356.624,107.096 Q356.734,105.499 357.147,91.843 Q357.56,78.187 357.56,58.913 L357.34,56.876 Q357.34,55.609 358.964,55.609 Q360.589,55.609 360.891,56.353 Q361.194,57.096 361.194,63.016 Q361.194,68.935 360.478,71.744 Q360.589,71.964 360.589,72.46 Q360.589,72.46 360.038,81.435 z" fill="#1EB4EC"/>
    <path d="M372.868,61.171 Q372.868,56.876 375.346,56.876 Q380.853,56.876 384.432,59.657 Q388.012,62.438 388.012,67.834 L388.012,76.039 Q388.012,80.389 383.606,88.484 Q382.119,91.182 382.119,91.43 Q382.119,91.678 386.387,109.271 Q390.655,126.865 390.875,127.416 Q391.095,127.967 391.976,129.729 Q392.857,131.491 392.857,132.757 Q392.857,134.024 391.591,134.024 L389.939,133.473 Q387.296,130.5 384.157,111.447 Q381.128,93.054 378.981,93.054 L378.54,93.054 Q376.062,93.054 376.062,94.651 Q376.062,100.819 376.778,115.164 Q377.494,129.508 377.99,131.215 L377.164,133.088 L375.512,133.088 L374.686,132.207 Q372.868,83.363 372.868,61.171 z M376.062,62.713 L376.503,90.026 L376.723,90.246 Q378.871,90.246 380.578,88.016 Q382.285,85.786 383.166,82.592 Q384.983,75.984 384.983,72.57 Q384.983,69.156 384.763,67.421 Q384.542,65.686 383.827,63.759 Q382.34,59.794 377.384,59.794 Q376.723,59.794 376.393,60.841 Q376.062,61.887 376.062,62.713 z" fill="#1EB4EC"/>
    <path d="M437.737,74.112 L437.626,74.332 Q437.241,76.204 437.186,79.976 Q437.131,83.748 436.195,88.126 Q435.259,92.504 433.964,109.079 Q432.67,125.654 432.67,131.766 Q432.67,132.152 432.01,132.867 Q431.349,133.583 430.605,133.583 Q429.862,133.583 429.256,132.84 Q428.651,132.096 428.403,130.692 Q428.155,129.288 428.045,128.242 Q427.935,126.425 427.88,123.947 Q427.825,121.469 427.467,118.881 Q427.109,116.292 426.503,113.071 Q425.897,109.85 425.594,107.73 Q425.292,105.61 423.529,90.576 Q418.849,50.763 417.582,48.781 Q418.408,47.294 419.757,47.294 Q421.106,47.294 421.932,49.359 Q422.758,51.424 423.171,54.783 Q423.584,58.142 423.805,61.226 Q424.025,64.31 424.163,67.449 Q424.3,70.587 424.713,74.938 Q425.126,79.288 427.301,94.211 Q429.477,109.134 430.192,115.081 L430.413,115.081 Q430.413,109.74 431.266,102.829 Q432.12,95.918 432.285,94.156 Q432.45,92.394 432.973,89.833 Q433.496,87.272 433.607,85.813 Q433.717,84.354 434.075,77.471 Q434.433,70.587 434.653,68.495 Q434.873,66.402 435.231,63.897 Q435.589,61.391 435.589,60.015 L435.479,57.977 Q435.479,56.545 437.076,55.774 Q440.435,55.774 440.435,57.757 L439.884,59.244 Q439.884,71.799 444.565,89.2 Q449.245,106.601 449.245,118.55 L449.576,118.77 Q449.906,117.449 450.209,111.997 Q450.512,106.546 451.971,95.147 Q453.43,83.748 453.706,79.068 Q453.981,74.387 455.165,64.53 Q456.349,54.673 456.349,49.332 L456.239,47.184 Q456.239,44.486 459.157,44.486 Q459.873,44.486 460.589,45.009 Q461.305,45.532 461.305,46.468 Q461.305,47.404 460.093,48.396 Q460.204,48.616 460.204,49.111 Q460.204,49.827 459.763,51.589 Q458.992,58.142 457.533,76.452 Q456.074,94.761 453.843,107.895 Q451.613,121.028 451.613,129.178 L451.613,130.83 Q451.613,132.152 451.228,132.867 Q450.842,133.583 449.576,133.583 Q446.933,133.583 445.501,116.237 Q445.06,111.006 442.004,96.193 Q438.948,81.38 438.067,74.332 z M449.576,119.101 Q449.356,119.101 449.356,119.266 z" fill="#1EB4EC"/>
    <path d="M496.602,88.539 L496.823,101.975 Q496.823,127.361 488.673,132.867 Q486.691,134.244 484.213,134.244 Q470.997,134.244 470.997,92.724 Q470.997,76.7 473.199,64.916 Q474.851,56.325 478.21,56.325 Q478.981,56.325 479.67,56.931 Q480.358,57.537 481.542,57.95 Q482.726,58.363 484.791,58.748 Q486.856,59.134 487.737,59.299 Q489.995,59.684 492.087,63.649 Q496.823,71.689 496.823,87.988 z M474.521,92.614 L474.741,101.535 Q474.741,112.273 477.164,121.964 Q478.045,125.599 479.78,128.297 Q481.514,130.995 483.744,130.995 Q485.975,130.995 487.654,129.343 Q489.334,127.691 490.325,124.745 Q491.316,121.799 491.977,118.743 Q492.638,115.687 492.913,111.887 Q493.354,105.83 493.354,101.094 L492.087,74.442 L491.646,73.561 L491.867,73.01 Q491.867,68.109 489.113,64.475 Q486.36,60.841 482.395,60.841 L477.66,60.841 Q476.724,60.841 476.008,70.89 Q475.292,80.94 475.072,82.041 z" fill="#1EB4EC"/>
    <path d="M508.497,61.171 Q508.497,56.876 510.975,56.876 Q516.481,56.876 520.061,59.657 Q523.64,62.438 523.64,67.834 L523.64,76.039 Q523.64,80.389 519.235,88.484 Q517.748,91.182 517.748,91.43 Q517.748,91.678 522.016,109.271 Q526.283,126.865 526.504,127.416 Q526.724,127.967 527.605,129.729 Q528.486,131.491 528.486,132.757 Q528.486,134.024 527.219,134.024 L525.567,133.473 Q522.924,130.5 519.785,111.447 Q516.757,93.054 514.609,93.054 L514.169,93.054 Q511.691,93.054 511.691,94.651 Q511.691,100.819 512.407,115.164 Q513.122,129.508 513.618,131.215 L512.792,133.088 L511.14,133.088 L510.314,132.207 Q508.497,83.363 508.497,61.171 z M511.691,62.713 L512.131,90.026 L512.352,90.246 Q514.499,90.246 516.206,88.016 Q517.913,85.786 518.794,82.592 Q520.611,75.984 520.611,72.57 Q520.611,69.156 520.391,67.421 Q520.171,65.686 519.455,63.759 Q517.968,59.794 513.012,59.794 Q512.352,59.794 512.021,60.841 Q511.691,61.887 511.691,62.713 z" fill="#1EB4EC"/>
    <path d="M562.737,92.614 Q562.737,97.074 563.288,98.065 Q562.572,101.755 561.994,108.032 Q561.416,114.31 560.617,117.614 Q559.819,120.918 558.607,123.286 Q555.634,128.903 548.75,132.647 L540.931,132.647 Q539.94,132.647 539.94,129.618 Q539.499,120.863 539.499,110.015 L539.719,83.363 Q539.719,71.634 539.279,62.162 Q538.343,61.391 538.343,60.235 Q538.343,59.078 539.279,58.252 Q540.215,57.426 540.986,57.426 Q541.757,57.426 542.721,58.335 Q543.684,59.244 544.18,59.491 Q544.675,59.739 546.548,60.042 Q548.42,60.345 549.659,60.951 Q550.898,61.556 553.706,64.227 Q556.515,66.898 557.506,67.614 L557.396,67.834 Q557.506,68.55 559.075,70.725 Q560.645,72.9 561.03,73.891 Q562.847,78.792 562.847,87.328 z M559.433,99.497 L559.323,95.422 L558.772,84.079 Q558.552,77.691 554.863,70.532 Q553.156,67.118 550.32,64.86 Q547.484,62.603 544.235,62.603 Q542.968,62.603 542.968,85.152 Q542.968,107.702 544.235,125.544 L544.125,127.691 L544.565,127.911 L544.896,129.398 L548.365,129.398 Q549.026,128.462 550.044,127.691 Q551.063,126.92 551.449,126.59 Q559.433,119.376 559.433,99.497 z" fill="#1EB4EC"/>
    <path d="M606.845,93.991 L606.735,94.431 Q606.735,94.486 609.323,103.132 Q611.03,109.85 611.03,113.484 Q611.03,117.118 610.177,120.588 Q609.323,124.057 607.699,127.251 Q606.074,130.445 603.239,132.509 Q600.403,134.574 597.787,134.574 Q595.171,134.574 594.07,134.464 Q590.821,134.134 589.499,131.766 Q589.499,130.389 590.683,130.389 Q591.867,130.389 593.877,131.243 Q595.887,132.096 597.704,132.096 Q599.522,132.096 601.586,130.004 Q603.651,127.911 604.753,124.828 Q606.956,118.55 606.956,113.071 Q606.956,107.592 605.303,101.92 Q603.651,96.248 601.256,91.568 Q598.861,86.887 596.493,82.206 Q590.821,71.083 590.821,61.171 Q590.821,52.966 595.777,48.065 Q598.475,45.477 602.11,45.477 Q603.266,45.477 605.083,46.386 Q606.9,47.294 607.286,48.285 L606.625,49.552 Q604.092,49.552 602.936,48.396 Q600.237,48.396 598.31,50.433 Q594.676,54.178 594.676,60.235 Q594.676,64.695 595.392,67.641 Q596.107,70.587 596.493,72.129 Q596.878,73.671 597.87,76.039 Q598.861,78.407 599.329,79.563 Q599.797,80.72 601.146,83.363 Q602.495,86.006 602.908,86.777 Q603.321,87.548 604.946,90.494 Q606.57,93.44 606.845,93.991 z" fill="#1EB4EC"/>
    <path d="M639.445,61.391 L633.332,60.62 L632.782,61.281 L633.002,61.722 Q632.782,62.162 632.782,68.164 Q632.782,74.167 634.654,96.221 Q636.526,118.275 636.526,129.288 Q636.526,130.114 635.865,130.775 Q635.205,131.436 634.379,131.436 L633.112,130.5 L632.892,122.295 L633.112,118.33 Q633.112,116.788 632.672,115.632 Q632.672,106.05 631.322,87.713 Q629.973,69.376 629.863,60.62 Q620.997,60.62 620.392,58.473 Q620.887,57.206 622.539,57.206 L637.848,58.252 L639.885,58.142 Q641.923,58.142 641.923,59.574 Q641.923,60.345 641.097,60.868 Q640.271,61.391 639.445,61.391 z" fill="#1EB4EC"/>
    <path d="M677.165,88.539 L677.385,101.975 Q677.385,127.361 669.236,132.867 Q667.253,134.244 664.775,134.244 Q651.559,134.244 651.559,92.724 Q651.559,76.7 653.762,64.916 Q655.414,56.325 658.773,56.325 Q659.544,56.325 660.232,56.931 Q660.921,57.537 662.104,57.95 Q663.288,58.363 665.353,58.748 Q667.418,59.134 668.299,59.299 Q670.557,59.684 672.65,63.649 Q677.385,71.689 677.385,87.988 z M655.083,92.614 L655.304,101.535 Q655.304,112.273 657.727,121.964 Q658.608,125.599 660.342,128.297 Q662.077,130.995 664.307,130.995 Q666.537,130.995 668.217,129.343 Q669.896,127.691 670.888,124.745 Q671.879,121.799 672.54,118.743 Q673.2,115.687 673.476,111.887 Q673.916,105.83 673.916,101.094 L672.65,74.442 L672.209,73.561 L672.429,73.01 Q672.429,68.109 669.676,64.475 Q666.923,60.841 662.958,60.841 L658.222,60.841 Q657.286,60.841 656.57,70.89 Q655.854,80.94 655.634,82.041 z" fill="#1EB4EC"/>
    <path d="M689.06,61.171 Q689.06,56.876 691.538,56.876 Q697.044,56.876 700.623,59.657 Q704.203,62.438 704.203,67.834 L704.203,76.039 Q704.203,80.389 699.797,88.484 Q698.311,91.182 698.311,91.43 Q698.311,91.678 702.578,109.271 Q706.846,126.865 707.066,127.416 Q707.286,127.967 708.168,129.729 Q709.049,131.491 709.049,132.757 Q709.049,134.024 707.782,134.024 L706.13,133.473 Q703.487,130.5 700.348,111.447 Q697.319,93.054 695.172,93.054 L694.731,93.054 Q692.253,93.054 692.253,94.651 Q692.253,100.819 692.969,115.164 Q693.685,129.508 694.181,131.215 L693.355,133.088 L691.703,133.088 L690.877,132.207 Q689.06,83.363 689.06,61.171 z M692.253,62.713 L692.694,90.026 L692.914,90.246 Q695.062,90.246 696.769,88.016 Q698.476,85.786 699.357,82.592 Q701.174,75.984 701.174,72.57 Q701.174,69.156 700.954,67.421 Q700.734,65.686 700.018,63.759 Q698.531,59.794 693.575,59.794 Q692.914,59.794 692.584,60.841 Q692.253,61.887 692.253,62.713 z" fill="#1EB4EC"/>
    <path d="M733.003,107.757 L733.113,125.654 Q733.113,133.804 730.745,133.804 Q730.359,133.804 729.809,133.363 Q729.258,132.922 729.093,132.537 Q730.194,129.784 730.194,112.823 Q730.194,109.519 729.781,103.407 Q729.368,97.295 729.313,95.422 L728.597,93.991 L728.928,92.614 Q727.496,89.31 723.641,78.352 Q718.024,62.658 717.914,60.125 L719.456,58.913 Q720.557,59.078 722.76,66.099 Q724.963,73.12 727.083,80.169 Q729.203,87.217 730.084,87.438 L730.524,85.4 L730.304,84.85 Q731.13,83.858 732.479,76.837 Q733.828,69.816 735.37,63.511 Q736.912,57.206 738.344,57.206 Q739.776,57.206 739.776,58.418 Q739.776,59.629 738.564,63.897 Q737.353,68.164 736.306,71.689 Q735.26,75.213 734.737,77.14 Q734.214,79.068 733.553,81.986 Q732.232,87.493 732.232,92.284 Q732.782,93.66 732.782,94.211 L732.121,97.46 z" fill="#1EB4EC"/>
    <path d="M400.764,178.746 L401.37,202.77 Q401.37,203.839 401.067,204.427 Q400.764,205.015 399.82,205.015 Q398.875,205.015 398.875,202.485 L399.16,189.403 L398.59,177.57 Q398.59,169.443 398.394,164.185 Q398.198,158.928 398.144,157.181 Q398.091,155.435 398.055,154.544 Q397.877,151.728 397.414,149.839 Q398.091,148.805 399.303,148.805 Q401.905,148.805 403.99,150.017 Q406.075,151.229 407.323,153.189 Q409.889,157.288 409.889,161.566 Q409.889,165.843 408.356,170.263 Q406.431,175.859 403.437,177.106 Q402.475,177.498 402.119,177.926 Q401.513,178.568 400.764,178.746 z M399.766,150.944 L400.622,175.894 L400.764,176.037 Q401.513,175.966 401.887,175.627 Q402.261,175.288 402.618,174.896 Q402.974,174.504 403.117,174.362 Q407.857,169.621 407.857,162.457 Q407.857,159.962 407.643,158.465 Q407.429,156.968 406.414,155.595 Q405.398,154.223 404.667,153.617 Q403.936,153.011 402.6,152.031 Q401.263,151.051 401.085,150.944 z" fill="#7F7F7F"/>
    <path d="M417.089,158.678 Q417.089,155.898 418.693,155.898 Q422.257,155.898 424.574,157.698 Q426.891,159.498 426.891,162.991 L426.891,168.302 Q426.891,171.118 424.039,176.358 Q423.077,178.104 423.077,178.265 Q423.077,178.425 425.839,189.813 Q428.602,201.201 428.744,201.558 Q428.887,201.914 429.457,203.055 Q430.028,204.195 430.028,205.015 Q430.028,205.835 429.208,205.835 L428.138,205.479 Q426.428,203.554 424.396,191.221 Q422.435,179.316 421.045,179.316 L420.76,179.316 Q419.156,179.316 419.156,180.35 Q419.156,184.342 419.62,193.627 Q420.083,202.912 420.404,204.017 L419.869,205.229 L418.8,205.229 L418.265,204.659 Q417.089,173.043 417.089,158.678 z M419.156,159.677 L419.441,177.356 L419.584,177.498 Q420.974,177.498 422.079,176.055 Q423.184,174.611 423.754,172.544 Q424.931,168.267 424.931,166.057 Q424.931,163.847 424.788,162.724 Q424.645,161.601 424.182,160.354 Q423.22,157.787 420.012,157.787 Q419.584,157.787 419.37,158.465 Q419.156,159.142 419.156,159.677 z" fill="#7F7F7F"/>
    <path d="M452.982,176.393 L453.125,185.09 Q453.125,201.522 447.849,205.087 Q446.566,205.978 444.962,205.978 Q436.408,205.978 436.408,179.102 Q436.408,168.73 437.834,161.102 Q438.903,155.542 441.077,155.542 Q441.576,155.542 442.022,155.934 Q442.467,156.326 443.234,156.593 Q444,156.861 445.337,157.11 Q446.673,157.36 447.243,157.467 Q448.705,157.716 450.059,160.282 Q453.125,165.486 453.125,176.037 z M438.689,179.031 L438.832,184.805 Q438.832,191.756 440.4,198.029 Q440.97,200.382 442.093,202.128 Q443.216,203.875 444.659,203.875 Q446.103,203.875 447.19,202.805 Q448.277,201.736 448.919,199.829 Q449.56,197.922 449.988,195.944 Q450.416,193.966 450.594,191.506 Q450.879,187.586 450.879,184.52 L450.059,167.269 L449.774,166.698 L449.917,166.342 Q449.917,163.17 448.135,160.817 Q446.352,158.465 443.786,158.465 L440.721,158.465 Q440.115,158.465 439.651,164.97 Q439.188,171.475 439.045,172.187 z" fill="#7F7F7F"/>
    <path d="M461.358,157.217 Q461.358,155.328 462.891,155.328 Q463.889,155.328 466.651,156.183 Q469.414,157.039 469.449,157.716 Q469.378,157.859 469.378,157.93 Q470.733,160.069 471.196,162.225 Q471.659,164.381 471.659,168.712 Q471.659,173.043 470.483,176.251 L470.554,176.251 Q470.269,176.928 469.432,178.158 Q468.594,179.387 468.416,179.708 Q469.842,180.813 470.679,182.863 Q471.517,184.912 471.713,186.516 Q471.909,188.12 472.016,190.366 L472.087,192.255 L472.087,193.288 Q472.087,200.275 467.739,203.625 Q465.422,205.407 462.143,205.407 Q461.501,205.407 461.127,204.962 Q460.752,204.516 460.717,203.839 Q460.681,203.162 460.681,201.593 L461.43,186.195 L461.287,179.708 L461.715,162.243 Q461.715,159.463 461.643,158.001 L461.358,157.645 z M463.176,199.241 L463.247,202.556 Q465.956,202.556 467.881,200.007 Q469.806,197.459 469.806,194.643 L469.806,194.536 Q469.842,193.894 469.842,193.288 Q469.842,192.683 469.788,191.203 Q469.735,189.724 469.556,188.494 Q469.378,187.265 468.933,185.768 Q468.487,184.271 467.881,183.237 Q466.384,180.778 463.746,180.778 Q463.39,186.231 463.39,190.419 Q463.39,194.607 463.604,195.748 Q463.176,196.532 463.176,199.241 z M463.604,171.296 L463.533,176.393 L463.533,177.284 L463.818,178.247 L464.352,178.247 Q469.164,178.247 469.164,168.516 Q469.164,167.197 468.95,163.989 L468.808,163.847 Q468.345,157.787 465.137,157.787 Q463.533,157.787 463.533,167.376 z" fill="#7F7F7F"/>
    <path d="M482.638,202.912 L489.517,203.126 L489.731,203.126 Q490.123,203.126 490.479,203.536 Q490.836,203.946 490.836,204.374 Q490.836,205.193 489.659,205.3 Q487.77,205.229 483.6,205.229 L483.743,205.3 L481.034,205.55 Q480,205.55 479.822,203.875 Q479.964,203.162 479.964,201.451 L480.392,162.528 L480.749,157.716 Q480.749,157.217 481.283,157.217 L482.495,157.502 Q482.495,157.502 482.424,163.277 L482.495,179.174 Q482.281,185.162 482.281,185.304 L482.424,191.506 L482.21,192.112 L482.281,192.041 L482.21,192.611 Q482.21,193.217 482.424,193.645 L482.21,200.631 L482.21,201.094 Q482.21,202.235 482.281,202.574 Q482.352,202.912 482.638,202.912 z" fill="#7F7F7F"/>
    <path d="M497.537,204.017 L497.608,202.164 L497.358,201.879 Q497.893,200.417 497.893,198.885 L497.537,189.261 L498.036,167.269 L497.751,158.536 Q497.751,156.469 499.854,156.469 Q500.673,156.469 501.03,156.932 Q501.279,157.003 503.133,157.217 Q507.624,157.716 507.731,159.035 Q507.731,159.605 506.341,160.425 Q502.313,159.106 500.424,159.035 L500.067,159.463 Q500.139,160.496 500.139,162.599 L499.854,173.934 Q499.854,175.966 500.887,175.966 L503.347,175.823 Q506.127,175.823 506.198,177.142 Q506.198,177.89 505.824,178.461 Q505.45,179.031 504.487,179.031 Q503.525,179.031 503.061,178.461 L500.673,178.104 L500.353,178.104 L499.996,178.461 L499.996,178.675 Q500.139,180.564 500.139,184.449 L499.996,194.821 Q499.996,202.092 500.994,202.877 Q501.636,203.411 503.347,203.411 L506.056,203.269 Q508.194,203.269 508.194,204.231 Q508.194,205.55 505.022,205.55 L498.998,205.55 Q497.644,205.55 497.537,204.017 z" fill="#7F7F7F"/>
    <path d="M544.301,190.045 L544.159,197.708 Q544.159,202.805 544.871,205.3 Q545.014,205.728 545.014,206.227 Q545.014,206.726 544.568,207.546 Q544.123,208.366 543.41,208.366 Q541.949,208.366 541.949,203.696 Q541.949,188.477 541.717,185.144 Q541.485,181.811 541.218,179.744 Q540.951,177.677 540.951,176.572 L541.236,167.518 Q541.236,164.952 540.951,164.061 Q539.525,165.201 532.182,194.821 Q532.111,195.071 532.022,195.89 Q531.933,196.71 531.808,197.405 Q531.683,198.1 531.469,198.849 Q531.006,200.489 529.972,200.489 Q528.761,200.489 528.279,199.9 Q527.798,199.312 527.798,198.1 Q527.798,195.106 524.02,179.993 Q520.242,164.88 518.958,163.633 Q518.78,167.554 518.317,175.645 Q517.355,192.504 517.355,198.279 Q517.355,204.053 517.426,205.015 Q517.105,205.978 515.893,205.978 Q515.644,205.978 515.145,205.586 Q514.646,205.193 514.646,204.944 Q514.646,197.245 515.786,181.918 Q516.927,166.591 516.927,158.892 L516.499,157.502 Q516.499,156.397 518.46,156.397 Q519.564,156.397 519.885,157.538 Q520.135,158.429 520.188,159.374 Q520.242,160.318 520.456,161.512 Q520.669,162.706 522.327,166.431 Q523.984,170.156 524.341,171.475 Q524.697,172.793 525.267,174.718 Q526.444,178.888 526.836,180.991 L527.798,182.916 Q528.012,184.128 528.618,186.481 Q529.83,191.435 529.901,194.358 Q530.757,193.075 534.499,179.263 Q538.242,165.451 538.58,163.633 Q538.919,161.815 539.062,160.871 Q539.204,159.926 539.347,159.374 Q539.489,158.821 539.739,158.037 Q540.273,156.54 541.521,156.54 Q541.984,156.54 542.662,156.968 Q543.339,157.395 543.339,157.859 Q543.339,188.441 544.301,190.045 z M540.951,163.633 L540.879,163.633 L540.772,163.704 L540.951,163.776 z" fill="#7F7F7F"/>
    <path d="M559.521,158.073 L557.988,157.645 Q556.848,157.645 555.992,158.554 Q555.137,159.463 554.709,160.817 Q553.818,163.455 553.818,164.952 Q553.818,166.449 553.889,167.09 Q553.961,167.732 554.157,168.587 Q554.353,169.443 554.424,169.799 Q554.495,170.156 554.834,171.279 Q555.172,172.401 555.208,172.544 L555.743,173.863 Q556.456,175.146 557.596,177.088 Q558.737,179.031 559.307,180.029 Q559.877,181.027 560.626,182.649 Q561.375,184.271 561.695,185.589 Q562.586,188.976 562.586,191.667 Q562.586,194.358 562.372,195.98 Q562.159,197.601 561.571,199.312 Q560.982,201.023 560.127,202.306 Q558.167,205.3 554.638,205.3 L554.281,205.479 Q552.143,205.087 551.929,203.696 L552.285,203.126 L554.923,203.625 Q556.598,203.625 557.81,202.324 Q559.022,201.023 559.628,199.027 Q560.697,195.32 560.697,192.166 Q560.697,189.011 559.788,186.213 Q558.879,183.415 557.596,181.098 Q556.313,178.782 555.03,176.465 Q551.929,170.869 551.929,165.451 Q551.929,162.671 552.927,160.14 Q554.745,155.471 557.703,155.471 Q558.523,155.471 559.503,156.094 Q560.483,156.718 560.483,157.502 Q560.483,158.073 559.521,158.073 z M560.02,157.787 L560.02,157.859 L560.091,157.859 Q560.091,157.787 560.02,157.787 z" fill="#7F7F7F"/>
    <path d="M406.82,236.139 L406.435,239.307 Q406.435,241.897 407.013,247.956 Q407.591,254.014 408.191,254.934 Q409.346,256.711 411.648,256.711 Q413.949,256.711 415.019,255.448 Q415.426,255.448 416.025,255.298 L416.24,255.534 Q416.24,257.632 412.9,258.274 Q412.108,258.424 411.113,258.424 Q410.117,258.424 408.768,257.439 Q407.42,256.454 406.863,255.255 Q406.307,254.057 405.772,247.806 Q405.236,241.555 405.236,236.803 Q405.236,232.05 405.515,231.194 Q405.365,230.445 405.365,229.781 Q405.365,227.148 407.249,225.682 Q409.132,224.215 411.872,224.215 Q412.622,224.215 413.51,224.686 Q414.399,225.157 414.399,225.842 Q414.399,226.335 413.714,226.335 Q413.521,226.335 413.178,226.067 Q412.836,225.799 412.611,225.799 Q412.386,225.799 412.129,225.885 Q411.616,225.714 411.08,225.714 Q410.545,225.714 409.785,225.939 Q409.025,226.163 408.522,226.517 Q408.019,226.87 407.666,227.469 Q407.313,228.069 407.12,228.615 Q406.927,229.16 406.82,230.017 Q406.692,231.237 406.692,233.035 z" fill="#000000"/>
    <path d="M430.047,240.784 L430.133,246.008 Q430.133,255.876 426.964,258.017 Q426.194,258.552 425.23,258.552 Q420.093,258.552 420.093,242.411 Q420.093,236.182 420.949,231.601 Q421.591,228.261 422.897,228.261 Q423.197,228.261 423.464,228.497 Q423.732,228.732 424.192,228.893 Q424.652,229.053 425.455,229.203 Q426.258,229.353 426.6,229.417 Q427.478,229.567 428.292,231.108 Q430.133,234.234 430.133,240.57 z M421.463,242.368 L421.548,245.836 Q421.548,250.011 422.49,253.778 Q422.833,255.191 423.507,256.24 Q424.181,257.289 425.048,257.289 Q425.915,257.289 426.568,256.647 Q427.221,256.005 427.607,254.859 Q427.992,253.714 428.249,252.526 Q428.506,251.338 428.613,249.861 Q428.784,247.506 428.784,245.665 L428.292,235.304 L428.12,234.962 L428.206,234.748 Q428.206,232.842 427.136,231.43 Q426.065,230.017 424.524,230.017 L422.683,230.017 Q422.319,230.017 422.041,233.923 Q421.762,237.83 421.677,238.258 z" fill="#000000"/>
    <path d="M452.396,248.983 L452.31,253.586 Q452.31,256.647 452.738,258.145 Q452.824,258.402 452.824,258.702 Q452.824,259.002 452.556,259.494 Q452.289,259.986 451.861,259.986 Q450.983,259.986 450.983,257.182 Q450.983,248.041 450.844,246.04 Q450.705,244.038 450.544,242.797 Q450.384,241.555 450.384,240.891 L450.555,235.454 Q450.555,233.913 450.384,233.378 Q449.527,234.063 445.117,251.852 Q445.075,252.002 445.021,252.494 Q444.968,252.986 444.893,253.404 Q444.818,253.821 444.689,254.271 Q444.411,255.255 443.79,255.255 Q443.062,255.255 442.773,254.902 Q442.484,254.549 442.484,253.821 Q442.484,252.023 440.215,242.946 Q437.946,233.87 437.175,233.121 Q437.068,235.475 436.79,240.335 Q436.212,250.46 436.212,253.928 Q436.212,257.396 436.255,257.974 Q436.062,258.552 435.334,258.552 Q435.185,258.552 434.885,258.317 Q434.585,258.081 434.585,257.931 Q434.585,253.307 435.27,244.102 Q435.955,234.897 435.955,230.274 L435.698,229.439 Q435.698,228.775 436.876,228.775 Q437.539,228.775 437.732,229.46 Q437.882,229.995 437.914,230.563 Q437.946,231.13 438.075,231.847 Q438.203,232.564 439.198,234.801 Q440.194,237.038 440.408,237.83 Q440.622,238.622 440.964,239.778 Q441.671,242.283 441.906,243.546 L442.484,244.702 Q442.613,245.43 442.977,246.842 Q443.705,249.818 443.747,251.573 Q444.261,250.803 446.509,242.508 Q448.757,234.212 448.96,233.121 Q449.163,232.029 449.249,231.462 Q449.335,230.894 449.42,230.563 Q449.506,230.231 449.656,229.76 Q449.977,228.861 450.726,228.861 Q451.004,228.861 451.411,229.118 Q451.818,229.374 451.818,229.653 Q451.818,248.02 452.396,248.983 z M450.384,233.121 L450.341,233.121 L450.276,233.163 L450.384,233.206 z" fill="#000000"/>
    <path d="M464.127,257.375 L462.671,257.225 Q462.329,257.225 461.858,257.471 Q461.387,257.717 460.734,257.717 Q460.081,257.717 459.91,257.289 L459.182,257.332 Q458.24,257.332 457.983,256.882 Q457.983,256.604 458.229,256.422 Q458.475,256.24 458.561,256.133 L459.824,256.133 L459.995,255.962 L460.145,255.041 Q460.145,255.041 459.824,245.451 L460.038,235.219 Q460.038,232.243 459.824,230.145 Q459.396,230.017 458.518,230.017 L457.469,230.102 Q456.634,230.102 456.634,229.353 Q456.634,229.16 457.03,228.989 Q457.426,228.818 457.683,228.818 Q463.784,228.818 463.784,230.145 Q463.784,230.274 463.677,230.488 L462.671,230.573 Q462.329,230.316 461.408,230.316 L461.194,230.445 Q461.322,230.83 461.322,232.778 L461.194,243.203 L461.494,252.815 L461.451,254.164 Q461.451,255.191 461.579,255.384 L461.537,255.491 Q461.537,255.919 462.5,255.919 L463.784,255.876 Q465.09,255.876 465.09,256.497 Q465.09,256.882 464.812,257.129 Q464.534,257.375 464.127,257.375 z" fill="#000000"/>
    <path d="M481.424,231.023 L481.338,229.931 Q481.338,229.011 481.959,229.011 Q482.387,229.011 482.654,229.417 Q482.922,229.824 482.922,230.274 L482.922,233.206 L482.687,233.57 Q482.687,236.995 482.216,246.832 Q481.745,256.668 481.295,257.589 Q481.188,257.61 480.664,257.749 Q480.139,257.888 479.925,257.888 Q479.711,257.888 479.54,257.599 Q479.368,257.31 479.272,256.84 Q479.176,256.369 479.09,256.219 L479.133,256.09 Q478.855,254.271 477.988,251.927 Q477.121,249.583 476.864,248.769 Q476.714,248.576 475.686,245.494 Q471.748,233.271 470.72,232.286 Q470.378,233.634 470.378,235.368 L470.463,238.815 L470.378,240.934 Q470.378,241.427 470.549,243.995 L470.42,243.995 Q470.42,251.295 470.72,252.066 L470.72,256.005 Q470.891,256.304 470.891,256.775 Q470.891,257.803 470.078,257.803 Q469.157,257.803 469.157,255.448 L469.329,252.58 L469.05,239.971 L469.329,232.2 L469.329,231.43 Q469.329,230.852 469.361,230.659 Q469.393,230.466 469.425,230.199 Q469.457,229.931 469.521,229.781 Q469.586,229.631 469.671,229.439 Q469.842,229.053 470.121,228.818 L470.249,228.968 L470.677,228.861 Q471.17,229.032 471.277,229.546 Q471.277,229.589 471.33,229.792 Q471.384,229.995 471.384,230.017 Q472.133,233.142 474.531,238.729 Q476.928,244.316 477.442,245.911 Q477.956,247.506 478.362,249.283 Q479.261,253.222 480.332,255.041 L480.417,254.913 Q481.424,245.344 481.424,231.023 z M480.503,257.76 Q480.546,257.76 480.546,257.803 z" fill="#000000"/>
    <path d="M497.329,249.026 L497.5,255.748 Q495.231,258.017 493.026,258.017 Q490.115,258.017 489.205,256.818 Q488.295,255.619 487.771,251.252 Q487.246,246.885 487.246,245.034 Q487.246,243.182 487.46,240.956 Q487.674,238.729 487.803,236.706 Q487.931,234.683 488.252,233.313 Q489.301,228.689 493.219,228.689 Q494.567,228.689 494.567,229.31 Q494.567,229.61 494.278,229.792 Q493.989,229.974 493.69,229.974 L492.855,229.888 Q491.378,229.888 490.543,231.772 Q489.644,233.87 489.419,235.647 Q489.194,237.423 489.087,238.472 Q488.98,239.521 488.937,240.87 Q488.873,242.904 488.873,244.659 Q488.873,246.414 489.002,247.463 Q489.344,247.998 489.451,249.208 Q489.558,250.417 489.633,251.638 Q489.708,252.858 489.976,254.057 Q490.243,255.255 491.121,256.005 Q491.999,256.754 493.518,256.754 Q496.152,256.754 496.152,249.754 L496.152,246.543 Q495.702,246.093 494.61,246.093 L493.775,246.136 Q492.726,246.136 492.726,245.622 Q492.726,244.873 493.775,244.873 Q497.821,244.873 497.821,245.751 z" fill="#000000"/>
    <path d="M515.375,257.674 L508.974,258.06 Q508.546,258.06 508.214,257.824 Q507.883,257.589 507.883,257.182 Q508.632,256.24 509.36,254.196 Q510.087,252.151 510.237,251.852 Q512.742,246.372 513.994,241.405 Q515.246,236.439 515.246,230.98 Q515.246,224.665 512.528,224.665 Q511.928,224.922 511.575,225.575 Q511.222,226.228 511.136,226.848 Q510.965,228.475 510.387,228.475 Q509.809,228.475 509.809,227.683 Q509.809,226.891 510.045,226.046 Q510.28,225.2 510.837,224.494 Q511.393,223.787 512.121,223.787 Q513.962,223.787 515.097,225.179 Q516.231,226.57 516.295,228.475 L516.21,228.561 L516.338,231.772 Q516.338,235.347 515.354,240.506 Q514.369,245.665 512.999,248.726 Q512.892,248.983 511.886,251.06 Q509.552,255.876 509.509,256.84 L509.852,256.882 Q511.372,256.604 515.118,256.411 L515.76,257.096 z" fill="#000000"/>
    <path d="M520.577,235.54 L520.62,228.518 Q520.876,228.09 521.101,227.052 Q521.326,226.014 521.562,225.585 Q522.054,224.708 523.745,224.708 Q524.173,224.708 524.944,225.147 Q525.714,225.585 526.132,225.981 Q526.549,226.377 526.838,226.923 Q527.127,227.469 527.32,227.855 Q527.513,228.24 527.652,228.978 Q527.791,229.717 527.855,230.038 Q528.005,231.044 528.08,231.783 Q528.155,232.521 528.326,233.806 Q528.497,235.09 528.529,235.347 Q528.562,235.604 528.722,236.771 Q528.883,237.937 528.915,238.312 Q528.947,238.686 529.065,239.725 Q529.182,240.763 529.225,241.277 Q529.268,241.79 529.343,242.7 Q529.418,243.61 529.439,244.231 Q529.525,245.708 529.525,246.907 Q529.525,248.105 529.482,248.972 Q529.439,249.839 529.322,251.199 Q529.204,252.558 528.915,253.661 Q528.626,254.763 528.198,255.791 Q527.256,258.017 525.329,258.017 Q524.922,258.017 523.916,257.46 Q521.84,256.176 520.705,241.148 L520.898,240.977 L520.855,237.852 Q520.577,237.488 520.577,235.54 z M521.776,237.466 L522.204,241.32 Q522.204,257.011 525.714,257.011 Q526.956,257.011 527.598,254.677 Q528.198,252.408 528.305,250.567 Q528.476,247.613 528.476,245.665 Q528.476,243.717 528.133,240.089 Q527.791,236.46 527.127,234.79 L527.127,232.907 Q526.656,231.708 526.614,230.423 Q526.571,229.139 526.41,228.4 Q526.25,227.662 525.95,227.127 Q525.286,225.928 523.081,225.671 Q522.054,226.506 521.818,227.148 Q521.583,227.79 521.583,229.267 z" fill="#000000"/>
    <path d="M541.705,257.418 L536.311,257.589 Q536.011,257.589 535.818,257.396 Q535.626,257.203 535.626,256.925 L535.84,256.497 L537.017,256.54 Q537.638,256.54 537.874,256.262 Q538.109,255.983 538.109,255.341 Q538.109,249.818 537.831,245.28 Q537.51,240.142 536.846,230.231 L536.889,228.732 Q536.889,227.448 536.482,226.709 Q536.075,225.971 534.877,225.971 L533.87,226.056 Q533.121,226.056 533.121,225.585 Q533.121,224.965 536.974,224.965 Q537.274,224.965 537.478,225.179 Q537.681,225.393 537.681,225.671 L537.767,225.671 Q537.638,226.313 537.638,227.351 Q537.638,228.39 537.97,231.151 Q538.302,233.913 538.302,235.839 Q538.302,237.766 538.666,242.657 Q539.03,247.549 539.03,248.887 Q539.03,250.225 538.944,250.567 Q539.222,251.68 539.222,255.534 L539.158,256.176 L539.351,256.304 L541.32,256.176 Q542.669,256.176 542.669,256.797 Q542.669,257.418 541.705,257.418 z" fill="#000000"/>
    <path d="M547.635,224.665 Q547.635,225.885 548.513,236.182 L548.449,236.225 Q548.449,236.246 549.219,236.332 Q551.681,236.61 552.387,237.134 Q553.094,237.659 553.715,240.078 Q554.764,244.145 554.764,248.341 Q554.764,251.531 554.571,252.612 Q554.378,253.693 554.132,254.56 Q553.886,255.427 553.543,256.026 Q552.709,257.46 551.446,258.145 L551.21,258.145 Q548.941,258.145 548.941,257.46 Q548.941,256.968 549.776,256.968 L550.91,257.332 Q551.574,257.332 552.141,256.518 Q552.709,255.705 553.03,254.549 Q553.672,252.109 553.672,250.728 Q553.672,249.347 553.576,247.592 Q553.479,245.836 553.19,243.278 Q552.901,240.72 552.206,239.029 Q551.51,237.338 550.482,237.338 L549.476,237.338 L549.283,237.466 L549.155,237.423 L548.192,237.809 Q547.378,237.809 547.207,237.124 Q547.164,236.888 547.143,236.407 Q547.121,235.925 547.1,235.754 Q547.314,234.512 547.314,233.206 Q547.314,231.9 546.811,228.796 Q546.308,225.692 546.265,224.215 L546.715,223.787 L550.076,223.744 Q551.403,223.744 551.403,224.344 L550.91,224.751 L549.99,224.751 L549.861,224.836 L548.106,224.622 L547.806,224.708 z M547.635,229.096 Q547.592,229.096 547.592,229.139 z" fill="#000000"/>
  </g>
</svg>
