<?xml version="1.0" encoding="UTF-8"?>
<!DOCTYPE svg PUBLIC "-//W3C//DTD SVG 1.1//EN" "http://www.w3.org/Graphics/SVG/1.1/DTD/svg11.dtd">
<svg version="1.1" xmlns="http://www.w3.org/2000/svg" xmlns:xlink="http://www.w3.org/1999/xlink" x="0" y="0" width="200" height="200" viewBox="0, 0, 200, 200">
  <g id="Layer_1">
    <path d="M200,0 L200,200 L0,200 L0,0 L200,0 z M51.407,58.036 L38.264,58.036 L38.264,140.35 L50.715,140.35 L50.715,132.165 L50.946,132.165 Q52.445,135.162 54.693,137.007 Q56.941,138.851 59.708,140.004 Q62.474,141.157 65.53,141.561 Q68.585,141.964 71.582,141.964 Q78.153,141.964 82.995,139.37 Q87.837,136.776 91.008,132.453 Q94.178,128.13 95.734,122.481 Q97.291,116.832 97.291,110.837 Q97.291,104.266 95.561,98.501 Q93.832,92.737 90.374,88.414 Q86.915,84.091 81.67,81.612 Q76.424,79.133 69.392,79.133 Q66.855,79.133 64.261,79.767 Q61.667,80.401 59.304,81.612 Q56.941,82.822 54.981,84.552 Q53.021,86.281 51.638,88.471 L51.407,88.471 L51.407,58.036 z M67.662,89.509 Q71.697,89.509 74.81,91.296 Q77.923,93.083 79.998,96.023 Q82.073,98.962 83.111,102.767 Q84.148,106.571 84.148,110.606 Q84.148,114.526 83.284,118.273 Q82.419,122.02 80.401,124.959 Q78.384,127.899 75.271,129.744 Q72.158,131.588 67.662,131.588 Q63.627,131.588 60.572,129.974 Q57.517,128.36 55.327,125.593 Q53.136,122.827 52.041,118.965 Q50.946,115.102 50.946,110.606 Q50.946,101.038 55.154,95.273 Q59.362,89.509 67.662,89.509 z M134.874,79.133 Q127.496,79.133 122.02,81.612 Q116.544,84.091 112.854,88.414 Q109.165,92.737 107.321,98.617 Q105.476,104.496 105.476,111.183 Q105.476,117.754 107.378,123.403 Q109.281,129.052 112.97,133.145 Q116.659,137.237 122.02,139.601 Q127.38,141.964 134.413,141.964 Q145.941,141.964 152.916,135.796 Q159.891,129.628 161.736,117.984 L148.593,117.984 Q147.671,124.441 143.924,128.014 Q140.177,131.588 134.413,131.588 Q130.147,131.588 127.15,129.801 Q124.152,128.014 122.25,125.132 Q120.348,122.25 119.483,118.561 Q118.619,114.872 118.619,111.183 Q118.619,104.381 120.233,100.173 Q121.847,95.965 124.268,93.602 Q126.689,91.238 129.571,90.374 Q132.453,89.509 134.989,89.509 Q140.523,89.509 144.154,92.333 Q147.786,95.158 148.593,100.691 L161.736,100.692 Q161.274,95.158 158.969,91.123 Q156.663,87.088 153.031,84.436 Q149.4,81.785 144.731,80.459 Q140.062,79.133 134.874,79.133 z" fill="#1EB4EC"/>
  </g>
</svg>
