<?xml version="1.0" encoding="UTF-8"?>
<!DOCTYPE svg PUBLIC "-//W3C//DTD SVG 1.1//EN" "http://www.w3.org/Graphics/SVG/1.1/DTD/svg11.dtd">
<svg version="1.1" xmlns="http://www.w3.org/2000/svg" xmlns:xlink="http://www.w3.org/1999/xlink" x="0" y="0" width="200" height="200" viewBox="0, 0, 200, 200">
  <g id="Layer_1">
    <path d="M200,0 L200,200 L0,200 L0,0 L200,0 z M48.103,98.166 L47.25,98.203 L47.25,138.029 C48.36,138.096 47.777,138.082 49,138.057 L49,98.2 L48.103,98.166 z M52.75,90.997 C51.764,92.428 51.093,94.071 50.75,95.774 L50.75,138.015 L52.75,137.931 L52.75,90.997 z M45.5,98.279 C44.451,98.324 45.036,98.271 43.75,98.484 L43.75,137.817 L45.5,137.923 L45.5,98.279 z M56.5,86.418 C54.613,88.256 55.172,87.485 54.5,88.459 L54.5,137.857 C55.894,137.798 55.228,137.823 56.5,137.781 L56.5,86.418 z M60.25,83.481 L58.25,84.909 L58.25,137.725 L60.25,137.66 L60.25,83.481 z M64,81.505 C62.68,82.082 63.349,81.755 62,82.497 L62,137.604 L64,137.539 L64,81.505 z M42,98.773 C40.502,99.021 41.072,98.849 40.25,99.132 L40.25,137.191 L42,137.514 L42,98.773 z M68,80.083 L66.511,80.525 C66.144,80.638 66.4,80.557 65.75,80.789 L65.75,137.486 L68,137.439 L68,80.083 z M71.75,79.509 L69.75,79.795 L69.75,137.402 L71.75,137.361 L71.75,79.509 z M73.5,79.484 L73.5,137.324 C75.008,137.292 74.342,137.302 75.5,137.289 L75.5,79.49 L73.5,79.484 z M120.116,61.923 C106.068,62.611 95.118,69.359 89.261,82.275 C88.987,82.178 89.157,82.237 88.75,82.103 L88.75,137.182 C93.504,137.166 98.258,137.196 103.011,137.275 L156.511,136.775 C156.511,136.775 171.511,139.775 175.011,117.775 C175.011,117.775 174.011,98.775 153.261,98.275 C153.261,98.275 155.511,66.775 122.261,62.025 C121.548,61.946 120.833,61.94 120.116,61.923 z M77.25,79.648 L77.25,137.269 L79.5,137.243 L79.5,79.887 L77.25,79.648 z M81.25,80.208 L81.25,137.223 C83.204,137.201 82.538,137.203 83.25,137.201 L83.25,80.595 C82.367,80.38 83.028,80.534 81.25,80.208 z M85,81.021 L85,137.195 L87,137.188 L87,81.564 C85.535,81.138 86.203,81.313 85,81.021 z M38.5,99.736 L36.5,100.425 L36.5,136.022 L38.5,136.685 L38.5,99.736 z M34.75,101.355 L33,102.377 L33,134.101 C34.03,134.843 33.454,134.484 34.75,135.141 L34.75,101.355 z M31.25,103.803 C30.167,104.718 30.894,104.06 29.25,105.958 L29.25,130.658 L31.25,132.776 L31.25,103.803 z M27.5,108.652 C25.882,111.294 25.389,114.512 25.011,117.525 C24.873,121.095 25.602,124.827 27.5,127.881 L27.5,108.652 z" fill="#1EB4EC"/>
  </g>
</svg>
